<?xml version="1.0" encoding="utf-8"?>
<!-- Generator: Adobe Illustrator 26.5.0, SVG Export Plug-In . SVG Version: 6.00 Build 0)  -->
<svg version="1.1" id="Capa_1" xmlns="http://www.w3.org/2000/svg" xmlns:xlink="http://www.w3.org/1999/xlink" x="0px" y="0px"
	 viewBox="0 0 394.4 200" style="enable-background:new 0 0 394.4 200;" xml:space="preserve">
<style type="text/css">
	.st0{fill:#6BCAD6;}
	.st1{fill:#FFFFFF;}
</style>
<g>
	<g>
		<path class="st0" d="M206.7,22.9c-25.7,0-46.5,20.8-46.5,46.5c0,24.1,18.3,43.9,41.8,46.3v-20c-9.8-2.1-17.2-10.9-17.2-21.4V63.8
			c0-1.9,1.5-3.4,3.4-3.4h4.7V47.4c0-2.4,2-4.4,4.4-4.4c2.4,0,4.4,2,4.4,4.4v12.9h9.8V47.4c0-2.4,2-4.4,4.4-4.4c2.4,0,4.4,2,4.4,4.4
			v12.9h4.9c1.9,0,3.4,1.5,3.4,3.4v10.5c0,10.4-7.3,19.2-17.1,21.4v20.1c23.4-2.4,41.6-22.2,41.6-46.3
			C253.2,43.8,232.3,22.9,206.7,22.9z"/>
		<path class="st1" d="M57,45.9c-3.5-1.9-7-3.5-10.6-4.7c-3.6-1.2-6.9-1.9-10.1-1.9c-3.9,0-6.9,0.8-9.2,2.3c-2.2,1.6-3.3,3.9-3.3,7
			c0,2.1,0.8,4.1,2.5,5.8c1.7,1.7,3.9,3.2,6.6,4.5c2.7,1.3,5.5,2.5,8.3,3.6c2.6,1,5.3,2.2,7.9,3.5c2.6,1.4,4.9,3.1,7,5.1
			c2.1,2,3.7,4.5,4.9,7.5c1.2,3,1.9,6.7,1.9,11.1c0,4.6-1.2,8.9-3.6,12.9c-2.4,4-5.9,7.2-10.5,9.6c-4.6,2.4-10.3,3.6-17.1,3.6
			c-3.5,0-7-0.4-10.6-1c-3.6-0.7-7.1-1.8-10.6-3.2c-3.5-1.4-6.8-3.3-10-5.5l7.9-14c2.1,1.6,4.5,2.9,7,4.1c2.5,1.2,5,2.1,7.6,2.8
			c2.6,0.7,4.9,1,7,1c2.1,0,4.3-0.3,6.5-0.9c2.2-0.6,4-1.7,5.4-3.2c1.4-1.5,2.2-3.5,2.2-6.2c0-1.8-0.6-3.5-1.8-4.9
			c-1.2-1.5-2.8-2.8-4.8-4.1c-2-1.2-4.2-2.3-6.6-3.2c-2.8-1.1-5.7-2.3-8.7-3.7c-3-1.4-5.8-3.1-8.3-5.1c-2.6-2-4.7-4.5-6.3-7.5
			c-1.6-3-2.4-6.7-2.4-11.1c0-5.3,1.2-9.9,3.5-13.7c2.3-3.9,5.7-6.9,10-9.2c4.3-2.3,9.2-3.5,14.8-3.8c7.3,0,13.3,0.9,17.9,2.6
			c4.6,1.7,8.7,3.8,12.3,6.2L57,45.9z"/>
		<path class="st1" d="M149.6,23.9v91h-17.9V78H91v37H73.1v-91H91v36.7h40.7V23.9H149.6z"/>
		<path class="st1" d="M312.5,81.9c2.9-1.6,5.3-3.6,7.3-6c2.5-3,4.3-6.4,5.4-10.1c1.1-3.7,1.7-7.4,1.7-11.1c0-4.7-0.8-8.9-2.4-12.7
			c-1.6-3.8-3.9-7-6.9-9.6c-3-2.7-6.7-4.7-11.2-6.2c-4.5-1.4-9.5-2.2-15.2-2.2h-27.6v91h17.9V86h11.9l19.2,28.9h20.9L312.5,81.9z
			 M307.6,59.5c-0.5,1.5-1.2,3-2.2,4.4c-1,1.4-2.5,2.6-4.3,3.5c-1.8,0.9-4.1,1.4-6.8,1.4h-12.7V41.2h12.9c3.1,0,5.6,0.5,7.5,1.6
			c1.9,1.1,3.2,2.4,4.1,4c0.9,1.6,1.5,3.1,1.8,4.6c0.3,1.5,0.4,2.8,0.4,3.8C308.3,56.5,308.1,58,307.6,59.5z"/>
		<path class="st1" d="M333.1,23.9h61.3v17.3h-22.1V115h-17.9V41.2h-21.3V23.9z"/>
	</g>
	<g>
		<g>
			<path class="st1" d="M33.7,144.1c-0.1-1.9-0.5-3.6-1.2-5c-0.7-1.4-1.7-2.6-3-3.6c-1.3-1-2.7-1.7-4.5-2.2
				c-1.7-0.5-3.6-0.7-5.7-0.7c-1.3,0-2.6,0.1-4,0.4s-2.8,0.8-4,1.5c-1.2,0.7-2.2,1.7-3,2.9c-0.8,1.2-1.2,2.8-1.2,4.6
				c0,1.8,0.4,3.3,1.3,4.4c0.9,1.1,2,2,3.4,2.7c1.4,0.7,3,1.2,4.9,1.7c1.8,0.4,3.7,0.8,5.6,1.2c1.9,0.4,3.8,0.8,5.6,1.3
				c1.8,0.5,3.4,1.2,4.9,2.1c1.4,0.9,2.6,2.1,3.5,3.5c0.9,1.4,1.3,3.2,1.3,5.4c0,2.3-0.5,4.3-1.5,5.9c-1,1.6-2.3,2.9-3.8,3.9
				c-1.5,1-3.2,1.7-5.1,2.2c-1.9,0.4-3.6,0.7-5.3,0.7c-2.6,0-5.1-0.3-7.4-0.8c-2.3-0.6-4.3-1.5-6-2.8c-1.7-1.3-3.1-2.9-4-4.9
				c-1-2-1.4-4.4-1.4-7.3h2.8c-0.1,2.5,0.2,4.5,1.1,6.2c0.8,1.7,2,3.1,3.5,4.2c1.5,1.1,3.2,1.9,5.2,2.3c2,0.5,4.1,0.7,6.3,0.7
				c1.3,0,2.8-0.2,4.3-0.5c1.5-0.3,2.9-0.9,4.2-1.7c1.3-0.8,2.3-1.8,3.2-3.1c0.9-1.3,1.3-2.9,1.3-4.9c0-1.9-0.4-3.4-1.3-4.6
				c-0.9-1.2-2-2.1-3.5-2.9c-1.4-0.7-3.1-1.3-4.9-1.8c-1.8-0.4-3.7-0.8-5.6-1.2c-1.9-0.4-3.7-0.8-5.6-1.3c-1.8-0.5-3.5-1.2-4.9-2
				c-1.4-0.9-2.6-2-3.4-3.3c-0.9-1.4-1.3-3.1-1.3-5.2s0.4-4,1.3-5.5c0.9-1.5,2.1-2.8,3.5-3.7c1.4-0.9,3.1-1.6,4.8-2.1
				c1.8-0.4,3.6-0.7,5.3-0.7c2.3,0,4.5,0.3,6.5,0.8c2,0.5,3.8,1.3,5.3,2.4c1.5,1.1,2.7,2.5,3.7,4.3c0.9,1.8,1.4,3.9,1.6,6.3H33.7z"
				/>
			<path class="st1" d="M91.9,153.7c0,3.3-0.5,6.3-1.4,9.2c-1,2.9-2.3,5.3-4.2,7.4c-1.8,2.1-4,3.8-6.7,5c-2.6,1.2-5.6,1.8-8.9,1.8
				c-3.3,0-6.3-0.6-9-1.8c-2.6-1.2-4.9-2.9-6.7-5c-1.8-2.1-3.2-4.6-4.2-7.4c-1-2.9-1.4-5.9-1.4-9.2c0-3.3,0.5-6.3,1.4-9.2
				c1-2.9,2.3-5.3,4.2-7.4c1.8-2.1,4-3.8,6.7-5c2.6-1.2,5.6-1.8,9-1.8c3.3,0,6.3,0.6,8.9,1.8c2.6,1.2,4.8,2.9,6.7,5
				c1.8,2.1,3.2,4.6,4.2,7.4C91.4,147.4,91.9,150.4,91.9,153.7z M52.2,153.7c0,2.9,0.4,5.6,1.3,8.1c0.8,2.5,2,4.8,3.6,6.7
				c1.6,1.9,3.5,3.4,5.8,4.5c2.3,1.1,4.9,1.7,7.8,1.7c2.9,0,5.5-0.6,7.8-1.7s4.2-2.6,5.8-4.5c1.6-1.9,2.8-4.1,3.6-6.7
				c0.8-2.5,1.3-5.3,1.3-8.1c0-2.9-0.4-5.6-1.3-8.1c-0.8-2.5-2-4.8-3.6-6.7c-1.6-1.9-3.5-3.4-5.8-4.5c-2.3-1.1-4.9-1.7-7.8-1.7
				c-2.9,0-5.5,0.6-7.8,1.7c-2.3,1.1-4.2,2.6-5.8,4.5c-1.6,1.9-2.8,4.1-3.6,6.7C52.6,148.1,52.2,150.8,52.2,153.7z"/>
			<path class="st1" d="M105.3,131.3h2.8v42.3h25.3v2.4h-28.1V131.3z"/>
			<path class="st1" d="M145,131.3v26.8c0,0.9,0,1.9,0.1,3.1c0.1,1.2,0.3,2.4,0.6,3.6c0.3,1.2,0.8,2.4,1.4,3.6
				c0.6,1.2,1.4,2.3,2.5,3.2c1,0.9,2.3,1.7,3.8,2.3c1.5,0.6,3.4,0.8,5.5,0.8c2.8,0,5.1-0.4,6.9-1.2c1.9-0.8,3.4-1.9,4.5-3.3
				c1.1-1.4,2-3.2,2.5-5.2c0.5-2,0.8-4.3,0.8-6.9v-26.8h2.8v26.8c0,2.7-0.3,5.2-0.8,7.4c-0.6,2.3-1.5,4.3-2.8,6
				c-1.3,1.7-3.1,3.1-5.3,4c-2.2,1-5,1.5-8.4,1.5c-2.6,0-4.9-0.3-6.8-1c-1.9-0.7-3.4-1.5-4.7-2.6c-1.2-1.1-2.2-2.3-2.9-3.7
				c-0.7-1.4-1.3-2.8-1.6-4.2c-0.4-1.4-0.6-2.8-0.7-4.1c-0.1-1.3-0.1-2.5-0.1-3.5v-26.8H145z"/>
			<path class="st1" d="M186.9,133.7v-2.4h34.2v2.4h-15.8V176h-2.8v-42.3H186.9z"/>
			<path class="st1" d="M231.7,131.3h2.8V176h-2.8V131.3z"/>
			<path class="st1" d="M290.3,153.7c0,3.3-0.5,6.3-1.4,9.2c-1,2.9-2.3,5.3-4.2,7.4c-1.8,2.1-4,3.8-6.7,5c-2.6,1.2-5.6,1.8-8.9,1.8
				c-3.3,0-6.3-0.6-9-1.8c-2.6-1.2-4.9-2.9-6.7-5c-1.8-2.1-3.2-4.6-4.2-7.4c-1-2.9-1.4-5.9-1.4-9.2c0-3.3,0.5-6.3,1.4-9.2
				c1-2.9,2.3-5.3,4.2-7.4c1.8-2.1,4-3.8,6.7-5c2.6-1.2,5.6-1.8,9-1.8c3.3,0,6.3,0.6,8.9,1.8c2.6,1.2,4.8,2.9,6.7,5
				c1.8,2.1,3.2,4.6,4.2,7.4C289.8,147.4,290.3,150.4,290.3,153.7z M250.6,153.7c0,2.9,0.4,5.6,1.3,8.1c0.8,2.5,2,4.8,3.6,6.7
				c1.6,1.9,3.5,3.4,5.8,4.5c2.3,1.1,4.9,1.7,7.8,1.7s5.5-0.6,7.8-1.7c2.3-1.1,4.2-2.6,5.8-4.5c1.6-1.9,2.8-4.1,3.6-6.7
				c0.8-2.5,1.3-5.3,1.3-8.1c0-2.9-0.4-5.6-1.3-8.1c-0.8-2.5-2-4.8-3.6-6.7c-1.6-1.9-3.5-3.4-5.8-4.5c-2.3-1.1-4.9-1.7-7.8-1.7
				s-5.5,0.6-7.8,1.7c-2.3,1.1-4.2,2.6-5.8,4.5c-1.6,1.9-2.8,4.1-3.6,6.7C251,148.1,250.6,150.8,250.6,153.7z"/>
			<path class="st1" d="M303.7,131.3h3.4l28.2,41h0.1v-41h2.8V176H335l-28.4-41.3h-0.1V176h-2.8V131.3z"/>
			<path class="st1" d="M382.8,144.1c-0.1-1.9-0.5-3.6-1.2-5c-0.7-1.4-1.7-2.6-3-3.6c-1.3-1-2.7-1.7-4.5-2.2
				c-1.7-0.5-3.6-0.7-5.7-0.7c-1.3,0-2.6,0.1-4,0.4c-1.4,0.3-2.8,0.8-4,1.5s-2.2,1.7-3,2.9c-0.8,1.2-1.2,2.8-1.2,4.6
				c0,1.8,0.4,3.3,1.3,4.4c0.9,1.1,2,2,3.4,2.7c1.4,0.7,3,1.2,4.9,1.7c1.8,0.4,3.7,0.8,5.6,1.2c1.9,0.4,3.8,0.8,5.6,1.3
				s3.4,1.2,4.9,2.1c1.4,0.9,2.6,2.1,3.5,3.5s1.3,3.2,1.3,5.4c0,2.3-0.5,4.3-1.5,5.9c-1,1.6-2.3,2.9-3.8,3.9c-1.5,1-3.2,1.7-5.1,2.2
				c-1.9,0.4-3.6,0.7-5.3,0.7c-2.6,0-5.1-0.3-7.4-0.8c-2.3-0.6-4.3-1.5-6-2.8c-1.7-1.3-3.1-2.9-4-4.9c-1-2-1.5-4.4-1.4-7.3h2.8
				c-0.1,2.5,0.2,4.5,1.1,6.2c0.8,1.7,2,3.1,3.5,4.2c1.5,1.1,3.2,1.9,5.2,2.3c2,0.5,4.1,0.7,6.3,0.7c1.3,0,2.8-0.2,4.3-0.5
				c1.5-0.3,2.9-0.9,4.2-1.7c1.3-0.8,2.3-1.8,3.2-3.1c0.9-1.3,1.3-2.9,1.3-4.9c0-1.9-0.4-3.4-1.3-4.6c-0.9-1.2-2-2.1-3.5-2.9
				c-1.4-0.7-3.1-1.3-4.9-1.8c-1.8-0.4-3.7-0.8-5.6-1.2c-1.9-0.4-3.7-0.8-5.6-1.3c-1.8-0.5-3.5-1.2-4.9-2c-1.4-0.9-2.6-2-3.4-3.3
				s-1.3-3.1-1.3-5.2s0.4-4,1.3-5.5c0.9-1.5,2.1-2.8,3.5-3.7c1.4-0.9,3.1-1.6,4.8-2.1c1.8-0.4,3.6-0.7,5.3-0.7
				c2.3,0,4.5,0.3,6.5,0.8c2,0.5,3.8,1.3,5.3,2.4c1.5,1.1,2.7,2.5,3.7,4.3c0.9,1.8,1.4,3.9,1.6,6.3H382.8z"/>
		</g>
	</g>
</g>
</svg>
